<svg xmlns="http://www.w3.org/2000/svg" version="1.1" xmlns:xlink="http://www.w3.org/1999/xlink" xmlns:svgjs="http://svgjs.dev/svgjs" width="2000" height="1999" viewBox="0 0 2000 1999"><g transform="matrix(1,0,0,1,-0.431486880466764,-0.4312711370263287)"><svg viewBox="0 0 343 343" data-background-color="#ffffff" preserveAspectRatio="xMidYMid meet" height="1999" width="2000" xmlns="http://www.w3.org/2000/svg" xmlns:xlink="http://www.w3.org/1999/xlink"><g id="tight-bounds" transform="matrix(1,0,0,1,0.0740000000000407,0.07400000000001228)"><svg viewBox="0 0 342.85155851775386 342.85155851775386" height="342.85155851775386" width="342.85155851775386"><g><svg></svg></g><g><svg viewBox="0 0 342.85155851775386 342.85155851775386" height="342.85155851775386" width="342.85155851775386"><g><path d="M0 171.426c0-94.676 76.75-171.426 171.426-171.426 94.676 0 171.426 76.75 171.426 171.426 0 94.676-76.75 171.426-171.426 171.426-94.676 0-171.426-76.75-171.426-171.426zM171.426 331.801c88.573 0 160.376-71.803 160.375-160.375 0-88.573-71.803-160.376-160.375-160.376-88.573 0-160.376 71.803-160.376 160.376 0 88.573 71.803 160.376 160.376 160.375z" data-fill-palette-color="tertiary" fill="#ffffff" stroke="transparent"></path><ellipse rx="164.56874808852186" ry="164.56874808852186" cx="171.42577925887693" cy="171.42577925887693" fill="#ffffff" stroke="transparent" stroke-width="0" fill-opacity="1" data-fill-palette-color="tertiary"></ellipse></g><g transform="matrix(1,0,0,1,64.84655864529837,110.15969861954275)"><svg viewBox="0 0 213.1584412271571 122.53216127866834" height="122.53216127866834" width="213.1584412271571"><g><svg viewBox="0 0 213.1584412271571 122.53216127866834" height="122.53216127866834" width="213.1584412271571"><g><svg viewBox="0 0 213.1584412271571 122.53216127866834" height="122.53216127866834" width="213.1584412271571"><g><svg viewBox="0 0 213.1584412271571 122.53216127866834" height="122.53216127866834" width="213.1584412271571"><g id="textblocktransform"><svg viewBox="0 0 213.1584412271571 122.53216127866834" height="122.53216127866834" width="213.1584412271571" id="textblock"><g><svg viewBox="0 0 213.1584412271571 122.53216127866834" height="122.53216127866834" width="213.1584412271571"><g transform="matrix(1,0,0,1,0,0)"><svg width="213.1584412271571" viewBox="2.75 -35.5 62.80000305175781 36.099998474121094" height="122.53216127866834" data-palette-color="#ffffff"><path d="M26.75 0L26.75-5.3 26.55-5.3Q26-2.75 23.58-1.07 21.15 0.6 17.15 0.6L17.15 0.6Q14.05 0.6 11.4-0.58 8.75-1.75 6.83-4.03 4.9-6.3 3.83-9.68 2.75-13.05 2.75-17.45L2.75-17.45Q2.75-21.8 3.85-25.18 4.95-28.55 6.95-30.85 8.95-33.15 11.75-34.33 14.55-35.5 18-35.5L18-35.5Q22.7-35.5 25.95-33.43 29.2-31.35 31-27.65L31-27.65 26.4-24.95Q25.4-27.4 23.3-28.93 21.2-30.45 18-30.45L18-30.45Q13.85-30.45 11.33-27.8 8.8-25.15 8.8-20.3L8.8-20.3 8.8-14.6Q8.8-9.75 11.33-7.1 13.85-4.45 18-4.45L18-4.45Q19.65-4.45 21.15-4.88 22.65-5.3 23.78-6.13 24.9-6.95 25.58-8.18 26.25-9.4 26.25-11.05L26.25-11.05 26.25-13.75 19.05-13.75 19.05-18.6 31.7-18.6 31.7 0 26.75 0ZM39.55 0L39.55-34.9 55-34.9Q59.35-34.9 61.82-32.45 64.3-30 64.3-25.9L64.3-25.9Q64.3-23.95 63.75-22.58 63.2-21.2 62.35-20.33 61.5-19.45 60.4-19.03 59.3-18.6 58.25-18.5L58.25-18.5 58.25-18.2Q59.3-18.15 60.57-17.7 61.85-17.25 62.95-16.28 64.05-15.3 64.8-13.78 65.55-12.25 65.55-10.05L65.55-10.05Q65.55-7.95 64.87-6.1 64.2-4.25 63-2.9 61.8-1.55 60.15-0.78 58.5 0 56.55 0L56.55 0 39.55 0ZM45.2-15.45L45.2-4.85 54.9-4.85Q57.1-4.85 58.35-6 59.6-7.15 59.6-9.3L59.6-9.3 59.6-11Q59.6-13.15 58.35-14.3 57.1-15.45 54.9-15.45L54.9-15.45 45.2-15.45ZM45.2-30.05L45.2-20.15 53.95-20.15Q56.05-20.15 57.2-21.23 58.35-22.3 58.35-24.3L58.35-24.3 58.35-25.9Q58.35-27.9 57.2-28.98 56.05-30.05 53.95-30.05L53.95-30.05 45.2-30.05Z" opacity="1" transform="matrix(1,0,0,1,0,0)" fill="#000000" class="undefined-text-0" data-fill-palette-color="quaternary" id="text-0"></path></svg></g></svg></g></svg></g></svg></g><g></g></svg></g></svg></g></svg></g></svg></g><defs></defs></svg><rect width="342.85155851775386" height="342.85155851775386" fill="none" stroke="none" visibility="hidden"></rect></g></svg></g></svg>